<?xml version="1.0" encoding="utf-8"?>
<!-- Generator: Adobe Illustrator 24.0.0, SVG Export Plug-In . SVG Version: 6.00 Build 0)  -->
<svg version="1.1" id="Layer_1" xmlns="http://www.w3.org/2000/svg" xmlns:xlink="http://www.w3.org/1999/xlink" x="0px" y="0px"
	 viewBox="0 0 64 64" style="enable-background:new 0 0 64 64;" xml:space="preserve">
<style type="text/css">
	.st0{clip-path:url(#SVGID_2_);}
	.st1{fill:#EC3B85;}
	.st2{fill:#FFFFFF;}
</style>
<g>
	<defs>
		<rect id="SVGID_1_" y="0" width="64" height="64"/>
	</defs>
	<clipPath id="SVGID_2_">
		<use xlink:href="#SVGID_1_"  style="overflow:visible;"/>
	</clipPath>
	<g class="st0">
		<circle class="st1" cx="31.9" cy="32" r="27.5"/>
		<g>
			<path class="st2" d="M19.4,33.9h24.9c1.2,0,2.2-0.8,2.2-1.9l0,0c0-1-1-1.9-2.2-1.9H19.4c-1.2,0-2.2,0.8-2.2,1.9l0,0
				C17.2,33,18.2,33.9,19.4,33.9z"/>
			<path class="st2" d="M30,20V44c0,1.2,0.8,2.2,1.9,2.2l0,0c1,0,1.9-1,1.9-2.2V20c0-1.2-0.8-2.2-1.9-2.2l0,0
				C30.8,17.8,30,18.8,30,20z"/>
		</g>
	</g>
</g>
</svg>
