<?xml version="1.0" encoding="utf-8"?>
<!-- Generator: Adobe Illustrator 24.0.0, SVG Export Plug-In . SVG Version: 6.00 Build 0)  -->
<svg version="1.1" id="Layer_1" xmlns="http://www.w3.org/2000/svg" xmlns:xlink="http://www.w3.org/1999/xlink" x="0px" y="0px"
	 viewBox="0 0 64 64" style="enable-background:new 0 0 64 64;" xml:space="preserve">
<style type="text/css">
	.st0{fill:#FAFAFA;}
	.st1{fill:#EFEFEF;}
</style>
<circle class="st0" cx="32" cy="32" r="32"/>
<g>
	<path class="st1" d="M32,38.87c6.28,0,11.52-5.12,11.52-11.52S38.4,15.83,32,15.83s-11.52,5.12-11.52,11.52S25.6,38.87,32,38.87z"
		/>
	<path class="st1" d="M42.59,39.45c-1.16-0.7-2.56-0.58-3.72,0.12c-2.09,1.28-4.07,1.75-6.75,1.75c-2.79,0-4.77-0.47-6.87-1.86
		c-1.16-0.7-2.56-0.81-3.72-0.23c-4.42,2.33-7.68,5.82-9.08,10.12c-0.47,1.28-0.12,2.68,0.81,3.61c4.77,5.24,10.94,7.45,18.73,7.45
		s13.96-2.21,18.73-7.45c0.93-0.93,1.16-2.33,0.7-3.49C50.04,45.15,46.89,41.77,42.59,39.45z"/>
</g>
</svg>
